<svg id="visual" viewBox="0 0 960 540" width="960" height="540" xmlns="http://www.w3.org/2000/svg" xmlns:xlink="http://www.w3.org/1999/xlink" version="1.1"><rect x="0" y="0" width="960" height="540" fill="#001220"></rect><path d="M0 352L22.8 352.8C45.7 353.7 91.3 355.3 137 362.3C182.7 369.3 228.3 381.7 274 384C319.7 386.3 365.3 378.7 411.2 379.2C457 379.7 503 388.3 548.8 392.7C594.7 397 640.3 397 686 394.3C731.7 391.7 777.3 386.3 823 382.2C868.7 378 914.3 375 937.2 373.5L960 372L960 541L937.2 541C914.3 541 868.7 541 823 541C777.3 541 731.7 541 686 541C640.3 541 594.7 541 548.8 541C503 541 457 541 411.2 541C365.3 541 319.7 541 274 541C228.3 541 182.7 541 137 541C91.3 541 45.7 541 22.8 541L0 541Z" fill="#fa7268"></path><path d="M0 355L22.8 357.5C45.7 360 91.3 365 137 374.3C182.7 383.7 228.3 397.3 274 402C319.7 406.7 365.3 402.3 411.2 394.7C457 387 503 376 548.8 379.3C594.7 382.7 640.3 400.3 686 402.2C731.7 404 777.3 390 823 385C868.7 380 914.3 384 937.2 386L960 388L960 541L937.2 541C914.3 541 868.7 541 823 541C777.3 541 731.7 541 686 541C640.3 541 594.7 541 548.8 541C503 541 457 541 411.2 541C365.3 541 319.7 541 274 541C228.3 541 182.7 541 137 541C91.3 541 45.7 541 22.8 541L0 541Z" fill="#ef5f67"></path><path d="M0 411L22.8 413.5C45.7 416 91.3 421 137 422.2C182.7 423.3 228.3 420.7 274 418.2C319.7 415.7 365.3 413.3 411.2 420.2C457 427 503 443 548.8 447.3C594.7 451.7 640.3 444.3 686 434.5C731.7 424.7 777.3 412.3 823 413.5C868.7 414.7 914.3 429.3 937.2 436.7L960 444L960 541L937.2 541C914.3 541 868.7 541 823 541C777.3 541 731.7 541 686 541C640.3 541 594.7 541 548.8 541C503 541 457 541 411.2 541C365.3 541 319.7 541 274 541C228.3 541 182.7 541 137 541C91.3 541 45.7 541 22.8 541L0 541Z" fill="#e34c67"></path><path d="M0 485L22.8 479.7C45.7 474.3 91.3 463.7 137 458C182.7 452.3 228.3 451.7 274 457.2C319.7 462.7 365.3 474.3 411.2 471.3C457 468.3 503 450.7 548.8 446.3C594.7 442 640.3 451 686 457.7C731.7 464.3 777.3 468.7 823 472.7C868.7 476.7 914.3 480.3 937.2 482.2L960 484L960 541L937.2 541C914.3 541 868.7 541 823 541C777.3 541 731.7 541 686 541C640.3 541 594.7 541 548.8 541C503 541 457 541 411.2 541C365.3 541 319.7 541 274 541C228.3 541 182.7 541 137 541C91.3 541 45.7 541 22.8 541L0 541Z" fill="#d53867"></path><path d="M0 515L22.8 512.2C45.7 509.3 91.3 503.7 137 500.5C182.7 497.3 228.3 496.7 274 495.5C319.7 494.3 365.3 492.7 411.2 491.3C457 490 503 489 548.8 491.2C594.7 493.3 640.3 498.7 686 500.5C731.7 502.3 777.3 500.7 823 500.3C868.7 500 914.3 501 937.2 501.5L960 502L960 541L937.2 541C914.3 541 868.7 541 823 541C777.3 541 731.7 541 686 541C640.3 541 594.7 541 548.8 541C503 541 457 541 411.2 541C365.3 541 319.7 541 274 541C228.3 541 182.7 541 137 541C91.3 541 45.7 541 22.8 541L0 541Z" fill="#c62368"></path></svg>