<svg id="visual" viewBox="0 0 960 540" width="960" height="540" xmlns="http://www.w3.org/2000/svg" xmlns:xlink="http://www.w3.org/1999/xlink" version="1.1"><rect x="0" y="0" width="960" height="540" fill="#eaf1ff"></rect><path d="M0 469L16 470.3C32 471.7 64 474.3 96 472.7C128 471 160 465 192 463.5C224 462 256 465 288 466.7C320 468.3 352 468.7 384 468.7C416 468.7 448 468.3 480 469.3C512 470.3 544 472.7 576 474.7C608 476.7 640 478.3 672 479C704 479.7 736 479.3 768 476.3C800 473.3 832 467.7 864 467.7C896 467.7 928 473.3 944 476.2L960 479L960 541L944 541C928 541 896 541 864 541C832 541 800 541 768 541C736 541 704 541 672 541C640 541 608 541 576 541C544 541 512 541 480 541C448 541 416 541 384 541C352 541 320 541 288 541C256 541 224 541 192 541C160 541 128 541 96 541C64 541 32 541 16 541L0 541Z" fill="#e5f5ce"></path><path d="M0 490L16 488.3C32 486.7 64 483.3 96 481.3C128 479.3 160 478.7 192 478.8C224 479 256 480 288 481.8C320 483.7 352 486.3 384 487.7C416 489 448 489 480 487.2C512 485.3 544 481.7 576 480.7C608 479.7 640 481.3 672 482.8C704 484.3 736 485.7 768 486.3C800 487 832 487 864 485.5C896 484 928 481 944 479.5L960 478L960 541L944 541C928 541 896 541 864 541C832 541 800 541 768 541C736 541 704 541 672 541C640 541 608 541 576 541C544 541 512 541 480 541C448 541 416 541 384 541C352 541 320 541 288 541C256 541 224 541 192 541C160 541 128 541 96 541C64 541 32 541 16 541L0 541Z" fill="#75c1b1"></path><path d="M0 502L16 501.2C32 500.3 64 498.7 96 498.7C128 498.7 160 500.3 192 501.5C224 502.7 256 503.3 288 502.5C320 501.7 352 499.3 384 498.7C416 498 448 499 480 498.7C512 498.3 544 496.7 576 497.3C608 498 640 501 672 501.2C704 501.3 736 498.7 768 497.3C800 496 832 496 864 496C896 496 928 496 944 496L960 496L960 541L944 541C928 541 896 541 864 541C832 541 800 541 768 541C736 541 704 541 672 541C640 541 608 541 576 541C544 541 512 541 480 541C448 541 416 541 384 541C352 541 320 541 288 541C256 541 224 541 192 541C160 541 128 541 96 541C64 541 32 541 16 541L0 541Z" fill="#0085a6"></path><path d="M0 517L16 517.7C32 518.3 64 519.7 96 519.5C128 519.3 160 517.7 192 517.2C224 516.7 256 517.3 288 517.5C320 517.7 352 517.3 384 517C416 516.7 448 516.3 480 516.3C512 516.3 544 516.7 576 516C608 515.3 640 513.7 672 514.7C704 515.7 736 519.3 768 520.3C800 521.3 832 519.7 864 519.3C896 519 928 520 944 520.5L960 521L960 541L944 541C928 541 896 541 864 541C832 541 800 541 768 541C736 541 704 541 672 541C640 541 608 541 576 541C544 541 512 541 480 541C448 541 416 541 384 541C352 541 320 541 288 541C256 541 224 541 192 541C160 541 128 541 96 541C64 541 32 541 16 541L0 541Z" fill="#294380"></path></svg>